<svg width="94" height="11" viewBox="0 0 94 11" fill="none" xmlns="http://www.w3.org/2000/svg">
<path d="M9.37899 8.684C10.373 7.69 10.863 6.5 10.863 5.1C10.863 3.7 10.373 2.51 9.37899 1.516C8.38499 0.521999 7.19499 0.0319998 5.79499 0.0319998C4.39499 0.0319998 3.20499 0.521999 2.21099 1.516C1.21699 2.51 0.726992 3.7 0.726992 5.1C0.726992 6.5 1.21699 7.69 2.21099 8.684C3.20499 9.678 4.39499 10.168 5.79499 10.168C7.19499 10.168 8.38499 9.678 9.37899 8.684ZM2.50499 8.418C1.59499 7.508 1.14699 6.402 1.14699 5.1C1.14699 3.798 1.59499 2.706 2.50499 1.796C3.41499 0.886 4.52099 0.424 5.79499 0.424C7.06899 0.424 8.16099 0.886 9.07099 1.796C9.98099 2.706 10.443 3.798 10.443 5.1C10.443 6.402 9.98099 7.508 9.07099 8.418C8.16099 9.328 7.06899 9.776 5.79499 9.776C4.52099 9.776 3.41499 9.328 2.50499 8.418ZM5.83699 7.788C6.83099 7.788 7.69899 7.284 8.14699 6.486L7.37699 6.024C7.11099 6.598 6.50899 6.92 5.83699 6.92C5.29099 6.92 4.85699 6.738 4.52099 6.388C4.19899 6.024 4.03099 5.59 4.03099 5.1C4.03099 4.61 4.19899 4.176 4.52099 3.826C4.85699 3.462 5.29099 3.28 5.83699 3.28C6.49499 3.28 7.09699 3.588 7.36299 4.162L8.13299 3.714C7.68499 2.916 6.83099 2.412 5.83699 2.412C5.06699 2.412 4.42299 2.678 3.90499 3.196C3.38699 3.714 3.12099 4.358 3.12099 5.1C3.12099 5.842 3.38699 6.486 3.90499 7.004C4.42299 7.522 5.06699 7.788 5.83699 7.788ZM21.7089 10V9.048H16.8789L19.6789 6.262C20.8409 5.1 21.4989 4.106 21.4989 2.972C21.4989 2.062 21.2049 1.348 20.6029 0.83C20.0149 0.298 19.3289 0.0319998 18.5449 0.0319998C17.2569 0.0319998 16.1369 0.661999 15.5209 1.88L16.3469 2.37C16.8089 1.446 17.5369 0.983999 18.5449 0.983999C19.6229 0.983999 20.5189 1.726 20.5189 2.972C20.5189 3.686 20.0149 4.554 19.0069 5.562L15.4789 9.118V10H21.7089ZM29.2777 8.796C29.9357 7.872 30.2577 6.64 30.2577 5.1C30.2577 3.56 29.9357 2.328 29.2777 1.418C28.6337 0.494 27.7237 0.0319998 26.5477 0.0319998C25.3717 0.0319998 24.4617 0.494 23.8037 1.418C23.1597 2.328 22.8377 3.56 22.8377 5.1C22.8377 6.64 23.1597 7.872 23.8037 8.796C24.4617 9.706 25.3717 10.168 26.5477 10.168C27.7237 10.168 28.6337 9.706 29.2777 8.796ZM24.5317 8.138C24.0557 7.424 23.8177 6.402 23.8177 5.1C23.8177 3.798 24.0557 2.776 24.5317 2.062C25.0217 1.348 25.6937 0.983999 26.5477 0.983999C27.4017 0.983999 28.0737 1.348 28.5497 2.062C29.0397 2.776 29.2777 3.798 29.2777 5.1C29.2777 6.402 29.0397 7.424 28.5497 8.138C28.0737 8.852 27.4017 9.216 26.5477 9.216C25.6937 9.216 25.0217 8.852 24.5317 8.138ZM30.8926 1.096L31.1446 1.936L33.3426 1.278V10H34.3226V0.199999H33.4826L30.8926 1.096ZM42.5804 8.796C43.2384 7.872 43.5604 6.64 43.5604 5.1C43.5604 3.56 43.2384 2.328 42.5804 1.418C41.9364 0.494 41.0264 0.0319998 39.8504 0.0319998C38.6744 0.0319998 37.7644 0.494 37.1064 1.418C36.4624 2.328 36.1404 3.56 36.1404 5.1C36.1404 6.64 36.4624 7.872 37.1064 8.796C37.7644 9.706 38.6744 10.168 39.8504 10.168C41.0264 10.168 41.9364 9.706 42.5804 8.796ZM37.8344 8.138C37.3584 7.424 37.1204 6.402 37.1204 5.1C37.1204 3.798 37.3584 2.776 37.8344 2.062C38.3244 1.348 38.9964 0.983999 39.8504 0.983999C40.7044 0.983999 41.3764 1.348 41.8524 2.062C42.3424 2.776 42.5804 3.798 42.5804 5.1C42.5804 6.402 42.3424 7.424 41.8524 8.138C41.3764 8.852 40.7044 9.216 39.8504 9.216C38.9964 9.216 38.3244 8.852 37.8344 8.138ZM57.2788 6.122V5.226H48.8788V6.122H57.2788ZM68.6855 10V9.048H63.8555L66.6555 6.262C67.8175 5.1 68.4755 4.106 68.4755 2.972C68.4755 2.062 68.1815 1.348 67.5795 0.83C66.9915 0.298 66.3055 0.0319998 65.5215 0.0319998C64.2335 0.0319998 63.1135 0.661999 62.4975 1.88L63.3235 2.37C63.7855 1.446 64.5135 0.983999 65.5215 0.983999C66.5995 0.983999 67.4955 1.726 67.4955 2.972C67.4955 3.686 66.9915 4.554 65.9835 5.562L62.4555 9.118V10H68.6855ZM76.2543 8.796C76.9123 7.872 77.2343 6.64 77.2343 5.1C77.2343 3.56 76.9123 2.328 76.2543 1.418C75.6103 0.494 74.7003 0.0319998 73.5243 0.0319998C72.3483 0.0319998 71.4383 0.494 70.7803 1.418C70.1363 2.328 69.8143 3.56 69.8143 5.1C69.8143 6.64 70.1363 7.872 70.7803 8.796C71.4383 9.706 72.3483 10.168 73.5243 10.168C74.7003 10.168 75.6103 9.706 76.2543 8.796ZM71.5083 8.138C71.0323 7.424 70.7943 6.402 70.7943 5.1C70.7943 3.798 71.0323 2.776 71.5083 2.062C71.9983 1.348 72.6703 0.983999 73.5243 0.983999C74.3783 0.983999 75.0503 1.348 75.5263 2.062C76.0163 2.776 76.2543 3.798 76.2543 5.1C76.2543 6.402 76.0163 7.424 75.5263 8.138C75.0503 8.852 74.3783 9.216 73.5243 9.216C72.6703 9.216 71.9983 8.852 71.5083 8.138ZM84.5859 10V9.048H79.7559L82.5559 6.262C83.7179 5.1 84.3759 4.106 84.3759 2.972C84.3759 2.062 84.0819 1.348 83.4799 0.83C82.8919 0.298 82.2059 0.0319998 81.4219 0.0319998C80.1339 0.0319998 79.0139 0.661999 78.3979 1.88L79.2239 2.37C79.6859 1.446 80.4139 0.983999 81.4219 0.983999C82.4999 0.983999 83.3959 1.726 83.3959 2.972C83.3959 3.686 82.8919 4.554 81.8839 5.562L78.3559 9.118V10H84.5859ZM92.1546 8.796C92.8126 7.872 93.1346 6.64 93.1346 5.1C93.1346 3.56 92.8126 2.328 92.1546 1.418C91.5106 0.494 90.6006 0.0319998 89.4246 0.0319998C88.2486 0.0319998 87.3386 0.494 86.6806 1.418C86.0366 2.328 85.7146 3.56 85.7146 5.1C85.7146 6.64 86.0366 7.872 86.6806 8.796C87.3386 9.706 88.2486 10.168 89.4246 10.168C90.6006 10.168 91.5106 9.706 92.1546 8.796ZM87.4086 8.138C86.9326 7.424 86.6946 6.402 86.6946 5.1C86.6946 3.798 86.9326 2.776 87.4086 2.062C87.8986 1.348 88.5706 0.983999 89.4246 0.983999C90.2786 0.983999 90.9506 1.348 91.4266 2.062C91.9166 2.776 92.1546 3.798 92.1546 5.1C92.1546 6.402 91.9166 7.424 91.4266 8.138C90.9506 8.852 90.2786 9.216 89.4246 9.216C88.5706 9.216 87.8986 8.852 87.4086 8.138Z" fill="black"/>
</svg>
