<svg width="100" height="13" viewBox="0 0 100 13" fill="none" xmlns="http://www.w3.org/2000/svg">
<path d="M0.232305 0.199999V10H1.2123V6.36H3.7323C4.6143 6.36 5.34231 6.066 5.9303 5.478C6.51831 4.89 6.8123 4.162 6.8123 3.28C6.8123 2.398 6.51831 1.67 5.9303 1.082C5.34231 0.494 4.6143 0.199999 3.7323 0.199999H0.232305ZM1.2123 5.436V1.124H3.7323C4.33431 1.124 4.8383 1.334 5.2303 1.74C5.6363 2.146 5.8323 2.65 5.8323 3.28C5.8323 3.91 5.6363 4.428 5.2303 4.834C4.8383 5.24 4.33431 5.436 3.7323 5.436H1.2123ZM9.1374 3H8.2134V10H9.1374V6.108C9.1374 4.498 10.0754 3.784 11.3494 3.784V2.888C10.2994 2.888 9.5714 3.308 9.1374 4.162V3ZM13.5537 1.32C13.8197 1.054 13.8197 0.634 13.5537 0.368C13.2877 0.102 12.8677 0.102 12.6017 0.368C12.3357 0.634 12.3357 1.054 12.6017 1.32C12.8677 1.586 13.2877 1.586 13.5537 1.32ZM13.5397 10V3H12.6157V10H13.5397ZM18.0905 9.034L15.6405 3H14.6605L17.5305 10H18.6505L21.5205 3H20.5405L18.0905 9.034ZM28.3838 4.372C27.7398 3.35 26.8018 2.832 25.5558 2.832C24.5618 2.832 23.7078 3.182 22.9938 3.896C22.2938 4.61 21.9438 5.478 21.9438 6.5C21.9438 7.522 22.2938 8.39 22.9938 9.104C23.7078 9.818 24.5618 10.168 25.5558 10.168C26.8018 10.168 27.7398 9.65 28.3838 8.628V10H29.3078V3H28.3838V4.372ZM23.6658 8.474C23.1338 7.928 22.8678 7.27 22.8678 6.5C22.8678 5.73 23.1338 5.072 23.6658 4.54C24.1978 3.994 24.8558 3.728 25.6258 3.728C26.3958 3.728 27.0538 3.994 27.5858 4.54C28.1178 5.072 28.3838 5.73 28.3838 6.5C28.3838 7.27 28.1178 7.928 27.5858 8.474C27.0538 9.006 26.3958 9.272 25.6258 9.272C24.8558 9.272 24.1978 9.006 23.6658 8.474ZM34.5262 10.168C35.8842 10.168 37.0882 9.468 37.6622 8.348L36.8922 7.9C36.4302 8.74 35.5762 9.272 34.5262 9.272C33.7562 9.272 33.0982 9.006 32.5662 8.474C32.0342 7.928 31.7682 7.27 31.7682 6.5C31.7682 5.73 32.0342 5.072 32.5662 4.54C33.0982 3.994 33.7562 3.728 34.5262 3.728C35.5762 3.728 36.4582 4.26 36.8362 5.1L37.5922 4.666C37.0882 3.546 35.9122 2.832 34.5262 2.832C33.4762 2.832 32.5942 3.182 31.8942 3.896C31.1942 4.596 30.8442 5.464 30.8442 6.5C30.8442 7.536 31.1942 8.404 31.8942 9.118C32.5942 9.818 33.4762 10.168 34.5262 10.168ZM41.7608 8.866L39.1288 3H38.1488L41.2848 10.042L41.1028 10.476C40.6688 11.54 40.0248 12.03 39.1848 11.932V12.8C40.4168 12.898 41.4668 12.03 42.0128 10.644L45.0088 3H44.0288L41.7608 8.866ZM58.1655 6.122V5.226H49.7655V6.122H58.1655ZM63.0622 0.199999V1.124H66.0722V10H67.0522V1.124H70.0622V0.199999H63.0622ZM73.299 2.832C72.221 2.832 71.353 3.182 70.667 3.882C69.981 4.582 69.645 5.45 69.645 6.5C69.645 7.564 69.995 8.446 70.681 9.132C71.367 9.818 72.263 10.168 73.369 10.168C74.727 10.168 75.833 9.552 76.449 8.558L75.637 8.082C75.245 8.796 74.447 9.272 73.383 9.272C71.885 9.272 70.779 8.376 70.597 6.962H76.743C76.757 6.78 76.771 6.626 76.771 6.528C76.771 5.534 76.449 4.666 75.805 3.938C75.175 3.196 74.335 2.832 73.299 2.832ZM73.299 3.728C73.929 3.728 74.489 3.938 74.965 4.344C75.441 4.75 75.721 5.324 75.819 6.066H70.597C70.779 4.68 71.843 3.728 73.299 3.728ZM79.1647 3H78.2407V10H79.1647V6.108C79.1647 4.498 80.1027 3.784 81.3767 3.784V2.888C80.3267 2.888 79.5987 3.308 79.1647 4.162V3ZM90.1051 2.832C89.0971 2.832 88.3411 3.252 87.8371 4.106C87.4311 3.252 86.7171 2.832 85.7091 2.832C84.7851 2.832 84.0711 3.224 83.5671 4.022V3H82.6431V10H83.5671V6.122C83.5671 4.498 84.4631 3.728 85.5831 3.728C86.5911 3.728 87.2211 4.4 87.2211 5.632V10H88.1451V6.122C88.1451 4.484 88.9291 3.728 90.0911 3.728C91.1131 3.728 91.7991 4.414 91.7991 5.632V10H92.7231V5.632C92.7231 3.91 91.6731 2.832 90.1051 2.832ZM95.2383 4.834C95.2383 4.12 95.9103 3.728 96.7083 3.728C97.5623 3.728 98.1223 4.05 98.3883 4.708L99.1583 4.26C98.7523 3.378 97.8423 2.832 96.7083 2.832C96.0223 2.832 95.4483 3.028 94.9863 3.406C94.5383 3.784 94.3143 4.26 94.3143 4.834C94.3143 6.346 95.7843 6.668 96.9603 6.962C97.7583 7.172 98.4023 7.522 98.4023 8.152C98.4023 8.922 97.7023 9.272 96.7923 9.272C95.8543 9.272 95.1403 8.824 94.8743 8.096L94.0903 8.558C94.4683 9.51 95.4483 10.168 96.7923 10.168C97.5343 10.168 98.1503 9.986 98.6123 9.608C99.0883 9.23 99.3263 8.754 99.3263 8.152C99.3263 6.64 97.8563 6.318 96.6803 6.024C95.8823 5.814 95.2383 5.464 95.2383 4.834Z" fill="black"/>
</svg>
