<svg width="43" height="39" viewBox="0 0 43 39" fill="none" xmlns="http://www.w3.org/2000/svg">
<path d="M11.8429 18.2344C11.8547 18.4102 11.8195 18.5801 11.7375 18.7441C11.6672 18.9082 11.6027 19.0547 11.5441 19.1836L10.9816 19.7812L10.6476 20.7832C10.5187 20.877 10.3781 20.9707 10.2257 21.0645C10.0851 21.1465 9.95622 21.2344 9.83903 21.3281C9.71012 21.4336 9.59294 21.5508 9.48747 21.6797C9.39372 21.8086 9.28825 21.9199 9.17106 22.0137C9.05387 22.1074 8.91325 22.1895 8.74919 22.2598C8.59684 22.3184 8.45622 22.3887 8.32731 22.4707C8.09294 22.6113 7.87028 22.7578 7.65934 22.9102C7.46012 23.0625 7.24919 23.209 7.02653 23.3496C6.96794 23.373 6.92106 23.4023 6.88591 23.4375C6.86247 23.4609 6.82145 23.4844 6.76286 23.5078C6.7277 23.5312 6.57536 23.5781 6.30583 23.6484C6.0363 23.7188 5.73747 23.8008 5.40934 23.8945C5.09294 23.9766 4.79411 24.0527 4.51286 24.123C4.23161 24.1934 4.07341 24.2285 4.03825 24.2285C3.82731 24.252 3.61052 24.2637 3.38786 24.2637C3.1652 24.2637 2.94255 24.2695 2.71989 24.2812L2.45622 24.4395C2.32731 24.3457 2.18669 24.2578 2.03434 24.1758C1.882 24.0938 1.75309 24.0059 1.64762 23.9121C1.53044 23.8066 1.41325 23.6895 1.29606 23.5605C1.17887 23.4199 1.07341 23.291 0.979656 23.1738C0.921062 23.0098 0.862469 22.8516 0.803875 22.6992C0.745281 22.5352 0.698406 22.377 0.66325 22.2246L0.575359 21.5566C0.551922 21.334 0.528484 21.1172 0.505047 20.9062C0.493328 20.6953 0.47575 20.4785 0.452312 20.2559C0.651531 19.7051 0.827312 19.1543 0.979656 18.6035C1.14372 18.041 1.34294 17.4902 1.57731 16.9512C1.63591 16.8223 1.68864 16.6934 1.73552 16.5645C1.79411 16.4238 1.8527 16.2891 1.9113 16.1602C1.98161 16.0195 2.05778 15.8906 2.13981 15.7734C2.22184 15.6445 2.29216 15.5156 2.35075 15.3867C2.40934 15.2461 2.45622 15.1055 2.49137 14.9648C2.52653 14.8125 2.57341 14.6719 2.632 14.543C2.66716 14.4727 2.72575 14.373 2.80778 14.2441C2.88981 14.1035 2.9777 13.9629 3.07145 13.8223C3.1652 13.6699 3.25309 13.5234 3.33512 13.3828C3.42887 13.2422 3.50505 13.1309 3.56364 13.0488C3.65739 12.9316 3.75114 12.8203 3.84489 12.7148C3.93864 12.6094 4.01481 12.4922 4.07341 12.3633C4.19059 12.1641 4.30192 11.9121 4.40739 11.6074C4.51286 11.3027 4.63005 11.0332 4.75895 10.7988C4.89958 10.541 5.06364 10.3008 5.25114 10.0781C5.45036 9.84375 5.632 9.60352 5.79606 9.35742C5.97184 9.11133 6.14177 8.8418 6.30583 8.54883L7.07927 7.98633L7.43083 8.33789L8.27458 8.19727L8.80192 8.98828C8.77848 9.16406 8.74919 9.36328 8.71403 9.58594C8.69059 9.80859 8.66716 10.0371 8.64372 10.2715C8.632 10.4941 8.62028 10.7168 8.60856 10.9395C8.60856 11.1504 8.62028 11.3379 8.64372 11.502C8.58512 11.7129 8.49723 11.9355 8.38005 12.1699C8.27458 12.3926 8.15153 12.5859 8.01091 12.75L7.94059 13.6992L7.23747 14.332L7.14958 15.2285L6.55192 15.9316C6.51677 16.0957 6.48161 16.2656 6.44645 16.4414C6.4113 16.6055 6.36442 16.7637 6.30583 16.916C6.24723 17.0566 6.17692 17.2031 6.09489 17.3555C6.01286 17.4961 5.93083 17.6426 5.8488 17.7949C5.61442 17.9941 5.37419 18.2168 5.12809 18.4629C4.882 18.709 4.65934 18.9551 4.46012 19.2012C4.35466 19.3301 4.25505 19.4707 4.1613 19.623C4.07927 19.7637 3.99137 19.8984 3.89762 20.0273C3.59294 20.4141 3.26481 20.7773 2.91325 21.1172C2.56169 21.457 2.21598 21.8086 1.87614 22.1719L2.26286 22.8574C2.50895 22.9395 2.76091 23.0156 3.01872 23.0859C3.27653 23.1562 3.53434 23.2207 3.79216 23.2793C3.90934 23.2559 4.04411 23.2324 4.19645 23.209C4.3488 23.1738 4.507 23.1387 4.67106 23.1035C4.83512 23.0566 4.99333 23.0098 5.14567 22.9629C5.30973 22.916 5.4445 22.8691 5.54997 22.8223C5.78434 22.7285 6.05387 22.5938 6.35856 22.418C6.66325 22.2305 6.92106 22.0664 7.132 21.9258C7.507 21.6914 7.88786 21.4512 8.27458 21.2051C8.6613 20.959 9.03044 20.7012 9.382 20.4316C9.61637 20.2559 9.86247 20.0332 10.1203 19.7637C10.3781 19.4941 10.6183 19.2422 10.841 19.0078C11.0754 18.7617 11.2804 18.5625 11.4562 18.4102C11.6437 18.2578 11.7726 18.1992 11.8429 18.2344ZM7.06169 9.91992C6.81559 10.3301 6.55192 10.7285 6.27067 11.1152C6.00114 11.4902 5.74919 11.8828 5.51481 12.293C5.43278 12.4336 5.36247 12.5801 5.30387 12.7324C5.24528 12.873 5.16911 13.0137 5.07536 13.1543C4.99333 13.2832 4.90544 13.4121 4.81169 13.541C4.71794 13.6699 4.63591 13.8105 4.56559 13.9629C4.42497 14.2324 4.29606 14.5195 4.17887 14.8242C4.07341 15.1172 3.95622 15.4043 3.82731 15.6855C3.68669 15.9668 3.52262 16.2305 3.33512 16.4766C3.14762 16.7227 2.9777 16.9863 2.82536 17.2676L2.54411 17.8301C2.52067 17.8887 2.49723 17.9355 2.4738 17.9707C2.45036 17.9941 2.42692 18.0352 2.40348 18.0938C2.35661 18.2227 2.33317 18.3633 2.33317 18.5156C2.33317 18.668 2.31559 18.8086 2.28044 18.9375C2.24528 19.0781 2.19255 19.2129 2.12223 19.3418C2.05192 19.4707 1.98747 19.5996 1.92887 19.7285C1.87028 19.8574 1.82341 19.9922 1.78825 20.1328C1.75309 20.2617 1.71208 20.3906 1.6652 20.5195C1.75895 20.4258 1.85856 20.3438 1.96403 20.2734C2.08122 20.1914 2.19255 20.1035 2.29802 20.0098C2.40348 19.9043 2.50309 19.793 2.59684 19.6758C2.69059 19.5586 2.79606 19.4531 2.91325 19.3594C3.01872 19.2656 3.13005 19.1836 3.24723 19.1133C3.37614 19.0312 3.49919 18.9492 3.61637 18.8672C3.80387 18.6094 3.96794 18.3457 4.10856 18.0762C4.17887 17.9473 4.23747 17.8008 4.28434 17.6367C4.34294 17.4727 4.41325 17.3262 4.49528 17.1973C4.56559 17.0684 4.65348 16.9453 4.75895 16.8281C4.87614 16.7109 4.97575 16.5879 5.05778 16.459C5.15153 16.3301 5.2277 16.1953 5.2863 16.0547C5.35661 15.9141 5.43278 15.7793 5.51481 15.6504C5.67887 15.3926 5.86052 15.1465 6.05973 14.9121L6.14762 13.8047L6.78044 13.0664L6.86833 12.3984L7.30778 11.7832L7.36052 10.7988L7.06169 9.91992ZM21.5285 18.4805C21.5754 18.6562 21.5578 18.8086 21.4757 18.9375C21.3937 19.0547 21.2824 19.1602 21.1418 19.2539C21.0129 19.3477 20.8664 19.4355 20.7023 19.5176C20.55 19.5879 20.4211 19.6699 20.3156 19.7637C19.7882 19.8809 19.3078 19.9688 18.8742 20.0273C18.4523 20.0742 17.9836 20.1387 17.4679 20.2207C17.3156 20.2441 17.1691 20.2441 17.0285 20.2207C16.8996 20.1855 16.7648 20.1738 16.6242 20.1855C16.5422 20.1855 16.466 20.1855 16.3957 20.1855C16.3254 20.1738 16.255 20.1738 16.1847 20.1855C15.9152 20.209 15.7394 20.3027 15.6574 20.4668C15.5754 20.6191 15.505 20.8008 15.4465 21.0117C15.3996 21.2109 15.3351 21.4043 15.2531 21.5918C15.1828 21.7676 15.0246 21.8906 14.7785 21.9609C14.755 22.0195 14.7609 22.0723 14.7961 22.1191C14.8429 22.166 14.8781 22.207 14.9015 22.2422C14.7023 22.3008 14.5675 22.4062 14.4972 22.5586C14.4386 22.7109 14.3859 22.8633 14.339 23.0156C14.2922 23.168 14.2218 23.2969 14.1281 23.4023C14.0461 23.5078 13.882 23.543 13.6359 23.5078C13.2726 23.8945 12.8449 24.2051 12.3527 24.4395C11.8605 24.6855 11.3507 24.8438 10.8234 24.9141C10.7297 24.8672 10.6359 24.8086 10.5422 24.7383C10.4601 24.668 10.3722 24.6035 10.2785 24.5449C10.1965 24.4863 10.1027 24.4395 9.99723 24.4043C9.90348 24.3809 9.79216 24.3809 9.66325 24.4043C9.65153 24.1582 9.60466 23.9297 9.52262 23.7188C9.42887 23.5078 9.31169 23.3086 9.17106 23.1211C9.14762 22.9102 9.17692 22.7168 9.25895 22.541C9.32927 22.3535 9.40544 22.1719 9.48747 21.9961C9.5695 21.8203 9.63981 21.6445 9.69841 21.4688C9.74528 21.2812 9.73356 21.0703 9.66325 20.8359C9.78044 20.7656 9.85661 20.6836 9.89177 20.5898C9.93864 20.4961 9.96794 20.4023 9.97966 20.3086C10.0031 20.2031 10.0324 20.1094 10.0675 20.0273C10.1027 19.9336 10.1847 19.8574 10.3136 19.7988C10.2199 19.5176 10.2316 19.3125 10.3488 19.1836C10.4777 19.043 10.63 18.9199 10.8058 18.8145C10.9816 18.709 11.1457 18.5918 11.298 18.4629C11.4504 18.334 11.509 18.1406 11.4738 17.8828C11.5441 17.8125 11.6261 17.7539 11.7199 17.707C11.8136 17.6602 11.9015 17.6191 11.9836 17.584C12.0773 17.5371 12.1652 17.4902 12.2472 17.4434C12.3293 17.3965 12.4054 17.332 12.4757 17.25C12.3937 17.1914 12.3527 17.1328 12.3527 17.0742C12.3644 17.0156 12.382 16.957 12.4054 16.8984C12.4289 16.8281 12.4523 16.7578 12.4757 16.6875C12.5109 16.6172 12.5109 16.5469 12.4757 16.4766C12.7922 16.5234 13.0675 16.4824 13.3019 16.3535C13.548 16.2129 13.7765 16.0723 13.9875 15.9316C14.2101 15.791 14.4328 15.6914 14.6554 15.6328C14.8781 15.5742 15.1359 15.6445 15.4289 15.8438C15.4523 15.9258 15.4875 16.0488 15.5343 16.2129C15.5929 16.3652 15.6457 16.5234 15.6925 16.6875C15.7511 16.8516 15.8039 17.0098 15.8507 17.1621C15.8976 17.3145 15.9269 17.4258 15.9386 17.4961C15.9386 17.5547 15.9386 17.6484 15.9386 17.7773C15.9386 17.9062 15.9386 18.0469 15.9386 18.1992C15.9386 18.3398 15.9386 18.4746 15.9386 18.6035C15.9386 18.7324 15.9386 18.832 15.9386 18.9023C16.2785 19.1016 16.6183 19.2246 16.9582 19.2715C17.298 19.3066 17.6379 19.2246 17.9777 19.0254C18.1066 19.1426 18.2297 19.1777 18.3468 19.1309C18.464 19.0723 18.5754 19.0078 18.6808 18.9375C18.798 18.8672 18.9152 18.832 19.0324 18.832C19.1496 18.8203 19.2668 18.9141 19.384 19.1133C19.548 18.9609 19.7179 18.8672 19.8937 18.832C20.0695 18.7852 20.2511 18.7617 20.4386 18.7617C20.6261 18.75 20.8078 18.7324 20.9836 18.709C21.1711 18.6855 21.3527 18.6094 21.5285 18.4805ZM14.7785 18.7793C14.7785 18.6035 14.8078 18.416 14.8664 18.2168C14.925 18.0176 14.9718 17.8242 15.007 17.6367C15.0422 17.4375 15.0363 17.25 14.9894 17.0742C14.9543 16.8984 14.8429 16.7402 14.6554 16.5996C14.5265 16.6699 14.4211 16.7695 14.339 16.8984C14.257 17.0156 14.175 17.1387 14.0929 17.2676C14.0109 17.3848 13.9113 17.4844 13.7941 17.5664C13.6886 17.6484 13.548 17.6719 13.3722 17.6367C13.3136 17.7773 13.3136 17.8945 13.3722 17.9883C13.4308 18.0703 13.5011 18.1523 13.5832 18.2344C13.6652 18.3047 13.7414 18.3809 13.8117 18.4629C13.8937 18.5449 13.923 18.6504 13.8996 18.7793C13.9465 18.8145 14.0109 18.8496 14.0929 18.8848C14.175 18.9082 14.257 18.9258 14.339 18.9375C14.4328 18.9375 14.5207 18.9258 14.6027 18.9023C14.6847 18.8789 14.7433 18.8379 14.7785 18.7793ZM14.6554 20.1855C14.4211 20.1855 14.216 20.1328 14.0402 20.0273C13.8761 19.9102 13.7062 19.7812 13.5304 19.6406C13.3664 19.5 13.1906 19.3711 13.0031 19.2539C12.8273 19.125 12.6105 19.0488 12.3527 19.0254C12.2472 19.166 12.1242 19.3008 11.9836 19.4297C11.8429 19.5469 11.7199 19.6758 11.6144 19.8164C11.509 19.957 11.4328 20.1094 11.3859 20.2734C11.3507 20.4375 11.38 20.625 11.4738 20.8359C11.2043 20.9648 11.0226 21.1523 10.9289 21.3984C10.8351 21.6328 10.7707 21.8906 10.7355 22.1719C10.7121 22.4531 10.6886 22.7344 10.6652 23.0156C10.6418 23.2969 10.5656 23.5488 10.4367 23.7715L10.8234 23.5078C10.8703 23.5312 10.9054 23.5664 10.9289 23.6133C10.964 23.6602 10.9699 23.7129 10.9465 23.7715C11.0402 23.6777 11.1457 23.6074 11.2629 23.5605C11.38 23.502 11.4972 23.4609 11.6144 23.4375C11.7433 23.4023 11.8664 23.373 11.9836 23.3496C12.1125 23.3262 12.2355 23.291 12.3527 23.2441C12.6457 23.4082 12.8566 23.4434 12.9855 23.3496C13.1144 23.2559 13.2199 23.1152 13.3019 22.9277C13.384 22.7402 13.4718 22.5469 13.5656 22.3477C13.6593 22.1367 13.8117 22.0078 14.0226 21.9609L13.8996 21.8379C14.0988 21.5918 14.2746 21.3398 14.4269 21.082C14.591 20.8125 14.6672 20.5137 14.6554 20.1855ZM31.9172 18.9727C31.7882 19.1367 31.6886 19.3184 31.6183 19.5176C31.548 19.7168 31.4601 19.9043 31.3547 20.0801C31.2609 20.2559 31.1379 20.4023 30.9855 20.5195C30.8449 20.6367 30.6457 20.6895 30.3879 20.6777C30.2004 20.748 30.0597 20.877 29.966 21.0645C29.884 21.2402 29.8019 21.4219 29.7199 21.6094C29.6379 21.7852 29.5324 21.9316 29.4035 22.0488C29.2746 22.1543 29.0812 22.166 28.8234 22.084C28.4953 22.2246 28.1965 22.4121 27.9269 22.6465C27.6691 22.8691 27.423 23.1035 27.1886 23.3496C27.1066 23.4316 27.0129 23.5371 26.9074 23.666C26.8019 23.7832 26.7023 23.8711 26.6086 23.9297C26.5265 23.9766 26.4445 23.9824 26.3625 23.9473C26.2804 23.9121 26.2043 23.877 26.134 23.8418C26.0636 23.7949 25.9933 23.7715 25.923 23.7715C25.8644 23.7715 25.8117 23.8242 25.7648 23.9297C25.8468 24.0938 25.8644 24.2051 25.8175 24.2637C25.7707 24.334 25.6945 24.3867 25.589 24.4219C25.4836 24.457 25.3722 24.4863 25.255 24.5098C25.1379 24.5332 25.0441 24.5742 24.9738 24.6328C24.8332 24.7617 24.7336 24.9199 24.675 25.1074C24.6164 25.2949 24.5636 25.4824 24.5168 25.6699C24.4699 25.8574 24.3996 26.0332 24.3058 26.1973C24.2238 26.373 24.0832 26.5078 23.884 26.6016C24.0011 26.6836 24.048 26.7656 24.0246 26.8477C24.0129 26.9297 23.9836 27.0117 23.9367 27.0938C23.8898 27.1875 23.8547 27.2754 23.8312 27.3574C23.8195 27.4395 23.8664 27.5215 23.9718 27.6035C23.7961 27.8262 23.6379 28.0664 23.4972 28.3242C23.3683 28.582 23.2394 28.8398 23.1105 29.0977C22.9816 29.3672 22.841 29.625 22.6886 29.8711C22.548 30.1289 22.3664 30.3574 22.1437 30.5566L22.1965 30.9785C22.0207 30.9316 21.9093 30.9375 21.8625 30.9961C21.8273 31.0547 21.8097 31.1367 21.8097 31.2422C21.8097 31.3477 21.8097 31.4531 21.8097 31.5586C21.8215 31.6758 21.7863 31.7637 21.7043 31.8223C21.6691 31.8691 21.6281 31.9043 21.5812 31.9277C21.5461 31.9512 21.5109 31.9805 21.4757 32.0156C21.1007 32.2969 20.8429 32.6543 20.7023 33.0879C20.6789 33.1582 20.6613 33.2285 20.6496 33.2988C20.6379 33.3691 20.6203 33.4453 20.5968 33.5273C20.5382 33.6914 20.4445 33.8613 20.3156 34.0371C20.1867 34.2129 20.0461 34.3945 19.8937 34.582C19.7414 34.7695 19.5949 34.9629 19.4543 35.1621C19.3136 35.373 19.2023 35.584 19.1203 35.7949C18.9328 35.7715 18.7863 35.7891 18.6808 35.8477C18.5636 35.918 18.4699 36.0059 18.3996 36.1113C18.3293 36.2285 18.2707 36.3516 18.2238 36.4805C18.1769 36.6094 18.1183 36.7207 18.048 36.8145C17.966 36.9199 17.8664 36.9961 17.7492 37.043C17.6203 37.1016 17.4562 37.1016 17.257 37.043L16.466 37.7637C16.3254 37.6816 16.1906 37.6641 16.0617 37.7109C15.9211 37.7578 15.7863 37.8223 15.6574 37.9043C15.5168 37.9863 15.382 38.0508 15.2531 38.0977C15.1125 38.1445 14.966 38.127 14.8136 38.0449C14.7316 38.1387 14.6613 38.1855 14.6027 38.1855C14.5441 38.1973 14.4738 38.1504 14.3918 38.0449L14.1281 38.3262C13.9875 38.209 13.8175 38.0977 13.6183 37.9922C13.4074 37.8984 13.214 37.7871 13.0382 37.6582C12.8625 37.541 12.7218 37.4004 12.6164 37.2363C12.5109 37.084 12.4933 36.8848 12.5636 36.6387C12.5402 36.5684 12.505 36.4922 12.4582 36.4102C12.3996 36.3281 12.3527 36.2402 12.3175 36.1465C12.2824 36.0645 12.259 35.9766 12.2472 35.8828C12.2355 35.8008 12.259 35.7246 12.3175 35.6543C12.2121 35.4551 12.1769 35.25 12.2121 35.0391C12.2355 34.8398 12.2765 34.6406 12.3351 34.4414C12.3937 34.2422 12.4406 34.043 12.4757 33.8438C12.5109 33.6445 12.4757 33.4453 12.3703 33.2461C12.5109 33.1406 12.6164 33.0059 12.6867 32.8418C12.7453 32.6777 12.8039 32.5078 12.8625 32.332C12.9093 32.1562 12.9621 31.9863 13.0207 31.8223C13.0793 31.6582 13.1789 31.5234 13.3195 31.418L13.3019 31.1367C13.8527 30.5508 14.4386 30.0117 15.0597 29.5195C15.6691 29.0391 16.3605 28.6816 17.134 28.4473C17.2863 28.1777 17.4855 27.9785 17.7316 27.8496C17.9777 27.7324 18.2297 27.6211 18.4875 27.5156C18.7336 27.4219 18.9621 27.2988 19.173 27.1465C19.384 27.0059 19.5422 26.7773 19.6476 26.4609C19.7062 26.5898 19.7648 26.6426 19.8234 26.6191C19.882 26.6074 19.9406 26.5781 19.9992 26.5312C20.0695 26.4961 20.134 26.4668 20.1925 26.4434C20.2511 26.4316 20.3097 26.4844 20.3683 26.6016C20.4855 26.25 20.673 25.9688 20.9308 25.7578C21.2004 25.5469 21.4933 25.3594 21.8097 25.1953C22.1379 25.043 22.466 24.8906 22.7941 24.7383C23.1222 24.5977 23.4093 24.4219 23.6554 24.2109C23.9132 24 24.1066 23.7422 24.2355 23.4375C24.3644 23.1211 24.3937 22.7168 24.3234 22.2246C24.4289 22.1543 24.4992 22.0664 24.5343 21.9609C24.5695 21.8438 24.5929 21.7266 24.6047 21.6094C24.6281 21.4922 24.6574 21.3867 24.6925 21.293C24.7277 21.1992 24.8039 21.1348 24.9211 21.0996C24.839 20.9707 24.7394 20.9121 24.6222 20.9238C24.505 20.9355 24.382 20.9707 24.2531 21.0293C24.1359 21.0879 24.0246 21.1465 23.9191 21.2051C23.8136 21.2637 23.7257 21.2754 23.6554 21.2402C23.6203 21.4043 23.5441 21.5215 23.4269 21.5918C23.3215 21.6621 23.2043 21.7266 23.0754 21.7852C22.9465 21.832 22.8117 21.8848 22.6711 21.9434C22.5304 22.002 22.4191 22.0957 22.3371 22.2246C22.2316 22.1777 22.132 22.2012 22.0382 22.2949C21.9562 22.377 21.8683 22.4707 21.7746 22.5762C21.6925 22.6699 21.5988 22.7402 21.4933 22.7871C21.3879 22.834 21.2648 22.7871 21.1242 22.6465C21.0539 22.834 20.9367 22.957 20.7726 23.0156C20.6203 23.0742 20.4504 23.1035 20.2629 23.1035C20.0754 23.1035 19.882 23.0918 19.6828 23.0684C19.4953 23.0449 19.3254 23.0508 19.173 23.0859L18.8742 22.7871C18.8507 22.8457 18.8156 22.8926 18.7687 22.9277C18.7101 22.9629 18.6515 22.9688 18.5929 22.9453C18.4992 22.7461 18.4113 22.5352 18.3293 22.3125C18.2355 22.0781 18.1769 21.8496 18.1535 21.627C18.1183 21.3926 18.1359 21.1699 18.2062 20.959C18.2765 20.7363 18.4172 20.543 18.6281 20.3789C18.9562 19.7812 19.384 19.3125 19.9113 18.9727C19.9699 19.0195 20.0343 19.0371 20.1047 19.0254C20.175 19.002 20.2453 18.9727 20.3156 18.9375C20.3976 18.8906 20.4738 18.8438 20.5441 18.7969C20.6144 18.7383 20.6789 18.7031 20.7375 18.6914C20.7726 18.5625 20.8371 18.4395 20.9308 18.3223C21.0363 18.2051 21.1476 18.0996 21.2648 18.0059C21.3937 17.9121 21.5226 17.8301 21.6515 17.7598C21.7922 17.6777 21.9211 17.6074 22.0382 17.5488C22.2609 17.4434 22.466 17.3145 22.6535 17.1621C22.8527 16.998 23.0519 16.8457 23.2511 16.7051C23.4504 16.5527 23.6554 16.4238 23.8664 16.3184C24.0773 16.2129 24.3175 16.1602 24.5871 16.1602L24.9035 16.4414C24.7043 16.5586 24.5285 16.7051 24.3761 16.8809C24.2355 17.0449 24.089 17.2148 23.9367 17.3906C23.7843 17.5547 23.6203 17.707 23.4445 17.8477C23.2687 17.9883 23.0519 18.082 22.7941 18.1289C22.5832 18.5391 22.2961 18.8906 21.9328 19.1836C21.5812 19.4648 21.2179 19.7285 20.8429 19.9746C20.8429 20.1504 20.7902 20.291 20.6847 20.3965C20.5793 20.502 20.4562 20.5957 20.3156 20.6777C20.175 20.7598 20.0343 20.8359 19.8937 20.9062C19.7531 20.9648 19.6359 21.0469 19.5422 21.1523C19.4601 21.2461 19.4191 21.3691 19.4191 21.5215C19.4191 21.6621 19.4953 21.8496 19.6476 22.084C19.7882 22.0137 19.9582 21.9668 20.1574 21.9434C20.3566 21.9199 20.55 21.8906 20.7375 21.8555C20.925 21.8086 21.089 21.7441 21.2297 21.6621C21.382 21.5684 21.4875 21.4277 21.5461 21.2402C21.7101 21.0996 21.8859 21.0117 22.0734 20.9766C22.2609 20.9414 22.4543 20.9355 22.6535 20.959C23.0402 20.5371 23.4269 20.1504 23.8136 19.7988C24.2121 19.4355 24.5871 19.0664 24.9386 18.6914C25.2902 18.3164 25.6125 17.918 25.9054 17.4961C26.2101 17.0625 26.4738 16.5645 26.6965 16.002C26.9308 15.9316 27.1418 15.9609 27.3293 16.0898C27.5168 16.2188 27.6515 16.3828 27.7336 16.582C27.7101 16.7227 27.6691 16.8574 27.6105 16.9863C27.5636 17.1035 27.5168 17.2207 27.4699 17.3379C27.4347 17.4434 27.4054 17.5605 27.382 17.6895C27.3703 17.8184 27.3937 17.9648 27.4523 18.1289C27.3586 18.1055 27.2824 18.1348 27.2238 18.2168C27.1769 18.2988 27.1242 18.3691 27.0656 18.4277C27.1007 18.5801 27.0949 18.7207 27.048 18.8496C27.0011 18.9668 26.9425 19.084 26.8722 19.2012C26.8019 19.3066 26.7375 19.4238 26.6789 19.5527C26.632 19.6816 26.6203 19.8223 26.6437 19.9746C26.4797 20.2793 26.3566 20.6016 26.2746 20.9414C26.2043 21.2695 26.1574 21.6035 26.134 21.9434L26.4504 22.2246C26.6027 22.002 26.7902 21.8438 27.0129 21.75C27.2472 21.6562 27.4816 21.5801 27.716 21.5215C27.9504 21.4512 28.1789 21.375 28.4015 21.293C28.6242 21.1992 28.8175 21.041 28.9816 20.8184C29.0519 20.4785 29.1984 20.2383 29.4211 20.0977C29.6437 19.9453 29.8781 19.8164 30.1242 19.7109C30.3703 19.6055 30.6047 19.4883 30.8273 19.3594C31.0617 19.2188 31.2257 18.9961 31.3195 18.6914H31.759C31.7355 18.75 31.7472 18.8027 31.7941 18.8496C31.841 18.8965 31.882 18.9375 31.9172 18.9727ZM22.1965 26.7598C22.0793 26.8301 21.9504 26.8945 21.8097 26.9531C21.6691 27.0117 21.5285 27.0762 21.3879 27.1465C21.2472 27.2168 21.1183 27.2988 21.0011 27.3926C20.884 27.4863 20.7961 27.6035 20.7375 27.7441C20.6086 27.6738 20.4855 27.668 20.3683 27.7266C20.2629 27.7969 20.1574 27.873 20.0519 27.9551C19.9465 28.0488 19.8351 28.125 19.7179 28.1836C19.6125 28.2422 19.4953 28.2363 19.3664 28.166C19.1437 28.3066 18.9328 28.459 18.7336 28.623C18.5226 28.7871 18.3117 28.9453 18.1007 29.0977C17.8898 29.2617 17.673 29.4082 17.4504 29.5371C17.216 29.6777 16.9699 29.7832 16.7121 29.8535C16.5832 30.0645 16.4132 30.2285 16.2023 30.3457C15.9914 30.4746 15.7804 30.5977 15.5695 30.7148C15.3468 30.832 15.1476 30.9727 14.9718 31.1367C14.7961 31.3008 14.6847 31.5293 14.6379 31.8223C14.2746 32.0566 14.0285 32.3555 13.8996 32.7188C13.759 33.0938 13.6828 33.4863 13.6711 33.8965C13.6593 34.3184 13.6769 34.7402 13.7238 35.1621C13.7707 35.5957 13.7941 35.9883 13.7941 36.3398C13.9465 36.5156 14.0988 36.6387 14.2511 36.709C14.4035 36.7793 14.5617 36.8145 14.7257 36.8145C14.8898 36.8145 15.0597 36.791 15.2355 36.7441C15.3996 36.709 15.5812 36.6738 15.7804 36.6387C15.8273 36.4629 15.9152 36.3457 16.0441 36.2871C16.1613 36.2402 16.2902 36.2051 16.4308 36.1816C16.5597 36.1582 16.6828 36.123 16.8 36.0762C16.9054 36.041 16.964 35.9473 16.9757 35.7949L17.134 35.9355C17.1457 35.748 17.1984 35.5898 17.2922 35.4609C17.3859 35.3438 17.4972 35.2324 17.6261 35.127C17.755 35.0215 17.8957 34.9219 18.048 34.8281C18.1886 34.7344 18.3117 34.6289 18.4172 34.5117C18.3937 34.2891 18.4347 34.1016 18.5402 33.9492C18.6457 33.7969 18.7629 33.6562 18.8918 33.5273C19.0207 33.3984 19.1379 33.2578 19.2433 33.1055C19.3371 32.9531 19.3722 32.7598 19.3488 32.5254C19.466 32.4785 19.548 32.4023 19.5949 32.2969C19.6418 32.1914 19.6886 32.0918 19.7355 31.998C19.7824 31.9043 19.841 31.834 19.9113 31.7871C19.9933 31.7402 20.1164 31.752 20.2804 31.8223C20.1164 31.6934 20.0461 31.5938 20.0695 31.5234C20.1047 31.4531 20.1632 31.3887 20.2453 31.3301C20.3273 31.2832 20.4035 31.2246 20.4738 31.1543C20.5441 31.084 20.5441 30.9785 20.4738 30.8379C20.755 30.7207 20.9367 30.5508 21.0187 30.3281C21.1007 30.1055 21.1593 29.8652 21.1945 29.6074C21.2414 29.3613 21.3058 29.1152 21.3879 28.8691C21.4699 28.6348 21.6515 28.4473 21.9328 28.3066C21.9093 28.0957 21.9445 27.9082 22.0382 27.7441C22.1437 27.5918 22.2433 27.4453 22.3371 27.3047C22.4425 27.1641 22.5129 27.0176 22.548 26.8652C22.5949 26.7129 22.5539 26.5312 22.425 26.3203L22.1965 26.7598ZM42.8507 18.4805C42.8976 18.6562 42.88 18.8086 42.798 18.9375C42.716 19.0547 42.6047 19.1602 42.464 19.2539C42.3351 19.3477 42.1886 19.4355 42.0246 19.5176C41.8722 19.5879 41.7433 19.6699 41.6379 19.7637C41.1105 19.8809 40.63 19.9688 40.1965 20.0273C39.7746 20.0742 39.3058 20.1387 38.7902 20.2207C38.6379 20.2441 38.4914 20.2441 38.3507 20.2207C38.2218 20.1855 38.0871 20.1738 37.9465 20.1855C37.8644 20.1855 37.7882 20.1855 37.7179 20.1855C37.6476 20.1738 37.5773 20.1738 37.507 20.1855C37.2375 20.209 37.0617 20.3027 36.9797 20.4668C36.8976 20.6191 36.8273 20.8008 36.7687 21.0117C36.7218 21.2109 36.6574 21.4043 36.5754 21.5918C36.505 21.7676 36.3468 21.8906 36.1007 21.9609C36.0773 22.0195 36.0832 22.0723 36.1183 22.1191C36.1652 22.166 36.2004 22.207 36.2238 22.2422C36.0246 22.3008 35.8898 22.4062 35.8195 22.5586C35.7609 22.7109 35.7082 22.8633 35.6613 23.0156C35.6144 23.168 35.5441 23.2969 35.4504 23.4023C35.3683 23.5078 35.2043 23.543 34.9582 23.5078C34.5949 23.8945 34.1672 24.2051 33.675 24.4395C33.1828 24.6855 32.673 24.8438 32.1457 24.9141C32.0519 24.8672 31.9582 24.8086 31.8644 24.7383C31.7824 24.668 31.6945 24.6035 31.6007 24.5449C31.5187 24.4863 31.425 24.4395 31.3195 24.4043C31.2257 24.3809 31.1144 24.3809 30.9855 24.4043C30.9738 24.1582 30.9269 23.9297 30.8449 23.7188C30.7511 23.5078 30.634 23.3086 30.4933 23.1211C30.4699 22.9102 30.4992 22.7168 30.5812 22.541C30.6515 22.3535 30.7277 22.1719 30.8097 21.9961C30.8918 21.8203 30.9621 21.6445 31.0207 21.4688C31.0675 21.2812 31.0558 21.0703 30.9855 20.8359C31.1027 20.7656 31.1789 20.6836 31.214 20.5898C31.2609 20.4961 31.2902 20.4023 31.3019 20.3086C31.3254 20.2031 31.3547 20.1094 31.3898 20.0273C31.425 19.9336 31.507 19.8574 31.6359 19.7988C31.5422 19.5176 31.5539 19.3125 31.6711 19.1836C31.8 19.043 31.9523 18.9199 32.1281 18.8145C32.3039 18.709 32.4679 18.5918 32.6203 18.4629C32.7726 18.334 32.8312 18.1406 32.7961 17.8828C32.8664 17.8125 32.9484 17.7539 33.0422 17.707C33.1359 17.6602 33.2238 17.6191 33.3058 17.584C33.3996 17.5371 33.4875 17.4902 33.5695 17.4434C33.6515 17.3965 33.7277 17.332 33.798 17.25C33.716 17.1914 33.675 17.1328 33.675 17.0742C33.6867 17.0156 33.7043 16.957 33.7277 16.8984C33.7511 16.8281 33.7746 16.7578 33.798 16.6875C33.8332 16.6172 33.8332 16.5469 33.798 16.4766C34.1144 16.5234 34.3898 16.4824 34.6242 16.3535C34.8703 16.2129 35.0988 16.0723 35.3097 15.9316C35.5324 15.791 35.755 15.6914 35.9777 15.6328C36.2004 15.5742 36.4582 15.6445 36.7511 15.8438C36.7746 15.9258 36.8097 16.0488 36.8566 16.2129C36.9152 16.3652 36.9679 16.5234 37.0148 16.6875C37.0734 16.8516 37.1261 17.0098 37.173 17.1621C37.2199 17.3145 37.2492 17.4258 37.2609 17.4961C37.2609 17.5547 37.2609 17.6484 37.2609 17.7773C37.2609 17.9062 37.2609 18.0469 37.2609 18.1992C37.2609 18.3398 37.2609 18.4746 37.2609 18.6035C37.2609 18.7324 37.2609 18.832 37.2609 18.9023C37.6007 19.1016 37.9406 19.2246 38.2804 19.2715C38.6203 19.3066 38.9601 19.2246 39.3 19.0254C39.4289 19.1426 39.5519 19.1777 39.6691 19.1309C39.7863 19.0723 39.8976 19.0078 40.0031 18.9375C40.1203 18.8672 40.2375 18.832 40.3547 18.832C40.4718 18.8203 40.589 18.9141 40.7062 19.1133C40.8703 18.9609 41.0402 18.8672 41.216 18.832C41.3918 18.7852 41.5734 18.7617 41.7609 18.7617C41.9484 18.75 42.13 18.7324 42.3058 18.709C42.4933 18.6855 42.675 18.6094 42.8507 18.4805ZM36.1007 18.7793C36.1007 18.6035 36.13 18.416 36.1886 18.2168C36.2472 18.0176 36.2941 17.8242 36.3293 17.6367C36.3644 17.4375 36.3586 17.25 36.3117 17.0742C36.2765 16.8984 36.1652 16.7402 35.9777 16.5996C35.8488 16.6699 35.7433 16.7695 35.6613 16.8984C35.5793 17.0156 35.4972 17.1387 35.4152 17.2676C35.3332 17.3848 35.2336 17.4844 35.1164 17.5664C35.0109 17.6484 34.8703 17.6719 34.6945 17.6367C34.6359 17.7773 34.6359 17.8945 34.6945 17.9883C34.7531 18.0703 34.8234 18.1523 34.9054 18.2344C34.9875 18.3047 35.0636 18.3809 35.134 18.4629C35.216 18.5449 35.2453 18.6504 35.2218 18.7793C35.2687 18.8145 35.3332 18.8496 35.4152 18.8848C35.4972 18.9082 35.5793 18.9258 35.6613 18.9375C35.755 18.9375 35.8429 18.9258 35.925 18.9023C36.007 18.8789 36.0656 18.8379 36.1007 18.7793ZM35.9777 20.1855C35.7433 20.1855 35.5382 20.1328 35.3625 20.0273C35.1984 19.9102 35.0285 19.7812 34.8527 19.6406C34.6886 19.5 34.5129 19.3711 34.3254 19.2539C34.1496 19.125 33.9328 19.0488 33.675 19.0254C33.5695 19.166 33.4465 19.3008 33.3058 19.4297C33.1652 19.5469 33.0422 19.6758 32.9367 19.8164C32.8312 19.957 32.755 20.1094 32.7082 20.2734C32.673 20.4375 32.7023 20.625 32.7961 20.8359C32.5265 20.9648 32.3449 21.1523 32.2511 21.3984C32.1574 21.6328 32.0929 21.8906 32.0578 22.1719C32.0343 22.4531 32.0109 22.7344 31.9875 23.0156C31.964 23.2969 31.8879 23.5488 31.759 23.7715L32.1457 23.5078C32.1925 23.5312 32.2277 23.5664 32.2511 23.6133C32.2863 23.6602 32.2922 23.7129 32.2687 23.7715C32.3625 23.6777 32.4679 23.6074 32.5851 23.5605C32.7023 23.502 32.8195 23.4609 32.9367 23.4375C33.0656 23.4023 33.1886 23.373 33.3058 23.3496C33.4347 23.3262 33.5578 23.291 33.675 23.2441C33.9679 23.4082 34.1789 23.4434 34.3078 23.3496C34.4367 23.2559 34.5422 23.1152 34.6242 22.9277C34.7062 22.7402 34.7941 22.5469 34.8879 22.3477C34.9816 22.1367 35.134 22.0078 35.3449 21.9609L35.2218 21.8379C35.4211 21.5918 35.5968 21.3398 35.7492 21.082C35.9132 20.8125 35.9894 20.5137 35.9777 20.1855Z" fill="#231F20"/>
</svg>
