<svg width="296" height="40" viewBox="0 0 296 40" fill="none" xmlns="http://www.w3.org/2000/svg">
<path d="M20 0.799805C9.39599 0.799805 0.799988 9.39581 0.799988 19.9998C0.799988 30.6038 9.39599 39.1998 20 39.1998C30.604 39.1998 39.2 30.6038 39.2 19.9998C39.2 9.39581 30.604 0.799805 20 0.799805ZM24.548 14.0678H21.662C21.32 14.0678 20.94 14.5178 20.94 15.1158V17.1998H24.55L24.004 20.1718H20.94V29.0938H17.534V20.1718H14.444V17.1998H17.534V15.4518C17.534 12.9438 19.274 10.9058 21.662 10.9058H24.548V14.0678Z" fill="black"/>
<path d="M84 0.799805C73.396 0.799805 64.8 9.39581 64.8 19.9998C64.8 30.6038 73.396 39.1998 84 39.1998C94.604 39.1998 103.2 30.6038 103.2 19.9998C103.2 9.39581 94.604 0.799805 84 0.799805ZM91.81 16.5278C91.818 16.6918 91.82 16.8558 91.82 17.0158C91.82 22.0158 88.018 27.7778 81.062 27.7778C79.0066 27.7812 76.9939 27.1909 75.266 26.0778C75.56 26.1138 75.862 26.1278 76.168 26.1278C77.94 26.1278 79.57 25.5258 80.864 24.5098C80.0754 24.4943 79.3113 24.2332 78.6782 23.7628C78.0451 23.2925 77.5745 22.6363 77.332 21.8858C77.8983 21.9935 78.4817 21.9709 79.038 21.8198C78.1821 21.6467 77.4124 21.183 76.8594 20.5071C76.3064 19.8313 76.0042 18.985 76.004 18.1118V18.0658C76.514 18.3478 77.098 18.5198 77.718 18.5398C76.9156 18.0057 76.3476 17.1851 76.1301 16.2461C75.9126 15.307 76.0621 14.3203 76.548 13.4878C77.4979 14.6558 78.6825 15.6113 80.0251 16.2924C81.3677 16.9736 82.8384 17.3651 84.342 17.4418C84.1508 16.6304 84.2331 15.7786 84.576 15.0188C84.9189 14.259 85.5032 13.6338 86.2381 13.2403C86.973 12.8469 87.8173 12.7073 88.6398 12.8431C89.4622 12.979 90.2167 13.3829 90.786 13.9918C91.6323 13.8244 92.444 13.5139 93.186 13.0738C92.9039 13.9501 92.3133 14.6942 91.524 15.1678C92.2737 15.0775 93.0057 14.876 93.696 14.5698C93.189 15.3296 92.5503 15.9927 91.81 16.5278Z" fill="black"/>
<path d="M154 19.9998C154 21.5911 153.368 23.1172 152.243 24.2424C151.117 25.3677 149.591 25.9998 148 25.9998C146.409 25.9998 144.883 25.3677 143.757 24.2424C142.632 23.1172 142 21.5911 142 19.9998C142 19.6578 142.036 19.3238 142.098 18.9998H140V26.9938C140 27.5498 140.45 27.9998 141.006 27.9998H154.996C155.262 27.9993 155.518 27.8931 155.706 27.7044C155.894 27.5158 156 27.2603 156 26.9938V18.9998H153.902C153.964 19.3238 154 19.6578 154 19.9998ZM148 23.9998C148.525 23.9997 149.046 23.8961 149.531 23.6949C150.016 23.4937 150.457 23.1989 150.829 22.8272C151.2 22.4556 151.495 22.0145 151.696 21.529C151.897 21.0435 152 20.5232 152 19.9978C152 19.4724 151.896 18.9521 151.695 18.4668C151.494 17.9814 151.199 17.5404 150.827 17.169C150.456 16.7975 150.015 16.5029 149.529 16.302C149.044 16.101 148.523 15.9977 147.998 15.9978C146.937 15.9981 145.919 16.4199 145.169 17.1704C144.419 17.9209 143.998 18.9387 143.998 19.9998C143.998 21.0609 144.42 22.0785 145.171 22.8286C145.921 23.5788 146.939 24.0001 148 23.9998ZM152.8 15.7998H155.198C155.357 15.7998 155.51 15.7367 155.623 15.6242C155.736 15.5117 155.799 15.3591 155.8 15.1998V12.8018C155.8 12.6421 155.737 12.489 155.624 12.3761C155.511 12.2632 155.358 12.1998 155.198 12.1998H152.8C152.64 12.1998 152.487 12.2632 152.374 12.3761C152.261 12.489 152.198 12.6421 152.198 12.8018V15.1998C152.2 15.5298 152.47 15.7998 152.8 15.7998ZM148 0.799805C142.908 0.799805 138.024 2.82266 134.424 6.42335C130.823 10.0241 128.8 14.9076 128.8 19.9998C128.8 25.092 130.823 29.9756 134.424 33.5763C138.024 37.177 142.908 39.1998 148 39.1998C150.521 39.1998 153.018 38.7032 155.348 37.7383C157.677 36.7734 159.794 35.3591 161.576 33.5763C163.359 31.7934 164.774 29.6768 165.738 27.3473C166.703 25.0179 167.2 22.5212 167.2 19.9998C167.2 17.4784 166.703 14.9817 165.738 12.6523C164.774 10.3228 163.359 8.20624 161.576 6.42335C159.794 4.64047 157.677 3.22621 155.348 2.26132C153.018 1.29643 150.521 0.799805 148 0.799805ZM158 27.7778C158 28.9998 157 29.9998 155.778 29.9998H140.222C139 29.9998 138 28.9998 138 27.7778V12.2218C138 10.9998 139 9.9998 140.222 9.9998H155.778C157 9.9998 158 10.9998 158 12.2218V27.7778Z" fill="black"/>
<path d="M215.206 19.6658L210.714 17.5698C210.322 17.3878 210 17.5918 210 18.0258V21.9738C210 22.4078 210.322 22.6118 210.714 22.4298L215.204 20.3338C215.598 20.1498 215.598 19.8498 215.206 19.6658ZM212 0.799805C201.396 0.799805 192.8 9.39581 192.8 19.9998C192.8 30.6038 201.396 39.1998 212 39.1998C222.604 39.1998 231.2 30.6038 231.2 19.9998C231.2 9.39581 222.604 0.799805 212 0.799805ZM212 27.7998C202.172 27.7998 202 26.9138 202 19.9998C202 13.0858 202.172 12.1998 212 12.1998C221.828 12.1998 222 13.0858 222 19.9998C222 26.9138 221.828 27.7998 212 27.7998Z" fill="black"/>
<path d="M276 0.799805C265.396 0.799805 256.8 9.39581 256.8 19.9998C256.8 30.6038 265.396 39.1998 276 39.1998C286.604 39.1998 295.2 30.6038 295.2 19.9998C295.2 9.39581 286.604 0.799805 276 0.799805ZM277.314 24.5498C276.082 24.4558 275.566 23.8458 274.602 23.2618C274.072 26.0438 273.424 28.7118 271.504 30.1058C270.91 25.8978 272.372 22.7418 273.052 19.3878C271.894 17.4378 273.19 13.5158 275.634 14.4798C278.64 15.6718 273.03 21.7298 276.796 22.4878C280.728 23.2758 282.334 15.6638 279.896 13.1918C276.372 9.61781 269.642 13.1098 270.47 18.2258C270.67 19.4758 271.964 19.8558 270.986 21.5818C268.732 21.0818 268.058 19.3038 268.146 16.9338C268.284 13.0538 271.632 10.3358 274.988 9.9618C279.234 9.4898 283.218 11.5198 283.77 15.5158C284.388 20.0238 281.852 24.9018 277.314 24.5498Z" fill="black"/>
</svg>
